# Exported from Wings 3D 2.2.9
mtllib water.mtl
o water
#32 vertices, 18 faces
v 0.26200000 -1.09160556 -2.9445196e-17
v 0.24205644 -1.09160556 0.10026306
v 0.18526198 -1.09160556 0.18526198
v 0.10026306 -1.09160556 0.24205644
v -1.9803453e-17 -1.09160556 0.26200000
v -0.10026306 -1.09160556 0.24205644
v -0.18526198 -1.09160556 0.18526198
v -0.24205644 -1.09160556 0.10026306
v -0.26200000 -1.09160556 2.6405499e-18
v -0.24205644 -1.09160556 -0.10026306
v -0.18526198 -1.09160556 -0.18526198
v -0.10026306 -1.09160556 -0.24205644
v -8.3974945e-17 -1.09160556 -0.26200000
v 0.10026306 -1.09160556 -0.24205644
v 0.18526198 -1.09160556 -0.18526198
v 0.24205644 -1.09160556 -0.10026306
v 0.26200000 -1.10877944 -2.9445196e-17
v 0.24205644 -1.10877944 0.10026306
v 0.18526198 -1.10877944 0.18526198
v 0.10026306 -1.10877944 0.24205644
v -1.9803453e-17 -1.10877944 0.26200000
v -0.10026306 -1.10877944 0.24205644
v -0.18526198 -1.10877944 0.18526198
v -0.24205644 -1.10877944 0.10026306
v -0.26200000 -1.10877944 2.6405499e-18
v -0.24205644 -1.10877944 -0.10026306
v -0.18526198 -1.10877944 -0.18526198
v -0.10026306 -1.10877944 -0.24205644
v -8.3974945e-17 -1.10877944 -0.26200000
v 0.10026306 -1.10877944 -0.24205644
v 0.18526198 -1.10877944 -0.18526198
v 0.24205644 -1.10877944 -0.10026306
vn 0.89090915 0.45418155 -4.2860639e-16
vn 0.82309273 0.45418155 0.34093617
vn 0.62996790 0.45418155 0.62996790
vn 0.34093617 0.45418155 0.82309273
vn 0.0000000e+0 0.45418155 0.89090915
vn -0.34093617 0.45418155 0.82309273
vn -0.62996790 0.45418155 0.62996790
vn -0.82309273 0.45418155 0.34093617
vn -0.89090915 0.45418155 -2.1430320e-16
vn -0.82309273 0.45418155 -0.34093617
vn -0.62996790 0.45418155 -0.62996790
vn -0.34093617 0.45418155 -0.82309273
vn -1.1345463e-16 0.45418155 -0.89090915
vn 0.34093617 0.45418155 -0.82309273
vn 0.62996790 0.45418155 -0.62996790
vn 0.82309273 0.45418155 -0.34093617
vn 0.89090915 -0.45418155 -2.1430320e-16
vn 0.82309273 -0.45418155 0.34093617
vn 0.62996790 -0.45418155 0.62996790
vn 0.34093617 -0.45418155 0.82309273
vn 0.0000000e+0 -0.45418155 0.89090915
vn -0.34093617 -0.45418155 0.82309273
vn -0.62996790 -0.45418155 0.62996790
vn -0.82309273 -0.45418155 0.34093617
vn -0.89090915 -0.45418155 0.0000000e+0
vn -0.82309273 -0.45418155 -0.34093617
vn -0.62996790 -0.45418155 -0.62996790
vn -0.34093617 -0.45418155 -0.82309273
vn -1.1345463e-16 -0.45418155 -0.89090915
vn 0.34093617 -0.45418155 -0.82309273
vn 0.62996790 -0.45418155 -0.62996790
vn 0.82309273 -0.45418155 -0.34093617
g water_default
usemtl default
s 1
f 1//1 16//16 15//15 14//14 13//13 12//12 11//11 10//10 9//9 8//8 7//7 6//6 5//5 4//4 3//3 2//2
f 1//1 17//17 32//32 16//16
f 2//2 18//18 17//17 1//1
f 3//3 19//19 18//18 2//2
f 4//4 20//20 19//19 3//3
f 5//5 21//21 20//20 4//4
f 6//6 22//22 21//21 5//5
f 7//7 23//23 22//22 6//6
f 8//8 24//24 23//23 7//7
f 9//9 25//25 24//24 8//8
f 10//10 26//26 25//25 9//9
f 11//11 27//27 26//26 10//10
f 12//12 28//28 27//27 11//11
f 13//13 29//29 28//28 12//12
f 14//14 30//30 29//29 13//13
f 15//15 31//31 30//30 14//14
f 16//16 32//32 31//31 15//15
f 18//18 19//19 20//20 21//21 22//22 23//23 24//24 25//25 26//26 27//27 28//28 29//29 30//30 31//31 32//32 17//17
