# Exported from Wings 3D 2.2.9
mtllib water.mtl
o water
#40 vertices, 22 faces
v 2.3187168e-2 4.8939668e-5 1.5036294e-2
v 2.2708112e-2 4.8939668e-5 1.8060932e-2
v 2.1317839e-2 4.8939668e-5 2.0789497e-2
v 1.9152437e-2 4.8939668e-5 2.2954899e-2
v 1.6423872e-2 4.8939668e-5 2.4345172e-2
v 1.3399234e-2 4.8939668e-5 2.4824228e-2
v 1.0374596e-2 4.8939668e-5 2.4345172e-2
v 7.6460310e-3 4.8939668e-5 2.2954899e-2
v 5.4806294e-3 4.8939668e-5 2.0789497e-2
v 4.0903560e-3 4.8939668e-5 1.8060932e-2
v 3.6113004e-3 4.8939668e-5 1.5036294e-2
v 4.0903560e-3 4.8939668e-5 1.2011657e-2
v 5.4806294e-3 4.8939668e-5 9.2830914e-3
v 7.6460310e-3 4.8939668e-5 7.1176898e-3
v 1.0374596e-2 4.8939668e-5 5.7274164e-3
v 1.3399234e-2 4.8939668e-5 5.2483609e-3
v 1.6423872e-2 4.8939668e-5 5.7274164e-3
v 1.9152437e-2 4.8939668e-5 7.1176898e-3
v 2.1317839e-2 4.8939668e-5 9.2830914e-3
v 2.2708112e-2 4.8939668e-5 1.2011657e-2
v 2.3187168e-2 -4.8939668e-5 1.5036294e-2
v 2.2708112e-2 -4.8939668e-5 1.8060932e-2
v 2.1317839e-2 -4.8939668e-5 2.0789497e-2
v 1.9152437e-2 -4.8939668e-5 2.2954899e-2
v 1.6423872e-2 -4.8939668e-5 2.4345172e-2
v 1.3399234e-2 -4.8939668e-5 2.4824228e-2
v 1.0374596e-2 -4.8939668e-5 2.4345172e-2
v 7.6460310e-3 -4.8939668e-5 2.2954899e-2
v 5.4806294e-3 -4.8939668e-5 2.0789497e-2
v 4.0903560e-3 -4.8939668e-5 1.8060932e-2
v 3.6113004e-3 -4.8939668e-5 1.5036294e-2
v 4.0903560e-3 -4.8939668e-5 1.2011657e-2
v 5.4806294e-3 -4.8939668e-5 9.2830914e-3
v 7.6460310e-3 -4.8939668e-5 7.1176898e-3
v 1.0374596e-2 -4.8939668e-5 5.7274164e-3
v 1.3399234e-2 -4.8939668e-5 5.2483609e-3
v 1.6423872e-2 -4.8939668e-5 5.7274164e-3
v 1.9152437e-2 -4.8939668e-5 7.1176898e-3
v 2.1317839e-2 -4.8939668e-5 9.2830914e-3
v 2.2708112e-2 -4.8939668e-5 1.2011657e-2
vn 0.89219187 0.45165658 2.3818378e-16
vn 0.84852489 0.45165658 0.27570245
vn 0.72179839 0.45165658 0.52441722
vn 0.52441722 0.45165658 0.72179839
vn 0.27570245 0.45165658 0.84852489
vn 0.0000000e+0 0.45165658 0.89219187
vn -0.27570245 0.45165658 0.84852489
vn -0.52441722 0.45165658 0.72179839
vn -0.72179839 0.45165658 0.52441722
vn -0.84852489 0.45165658 0.27570245
vn -0.89219187 0.45165658 1.1282389e-16
vn -0.84852489 0.45165658 -0.27570245
vn -0.72179839 0.45165658 -0.52441722
vn -0.52441722 0.45165658 -0.72179839
vn -0.27570245 0.45165658 -0.84852489
vn -4.7636756e-16 0.45165658 -0.89219187
vn 0.27570245 0.45165658 -0.84852489
vn 0.52441722 0.45165658 -0.72179839
vn 0.72179839 0.45165658 -0.52441722
vn 0.84852489 0.45165658 -0.27570245
vn 0.89219187 -0.45165658 2.3818378e-16
vn 0.84852489 -0.45165658 0.27570245
vn 0.72179839 -0.45165658 0.52441722
vn 0.52441722 -0.45165658 0.72179839
vn 0.27570245 -0.45165658 0.84852489
vn 0.0000000e+0 -0.45165658 0.89219187
vn -0.27570245 -0.45165658 0.84852489
vn -0.52441722 -0.45165658 0.72179839
vn -0.72179839 -0.45165658 0.52441722
vn -0.84852489 -0.45165658 0.27570245
vn -0.89219187 -0.45165658 1.1282389e-16
vn -0.84852489 -0.45165658 -0.27570245
vn -0.72179839 -0.45165658 -0.52441722
vn -0.52441722 -0.45165658 -0.72179839
vn -0.27570245 -0.45165658 -0.84852489
vn -4.7636756e-16 -0.45165658 -0.89219187
vn 0.27570245 -0.45165658 -0.84852489
vn 0.52441722 -0.45165658 -0.72179839
vn 0.72179839 -0.45165658 -0.52441722
vn 0.84852489 -0.45165658 -0.27570245
g water_default
usemtl default
s 1
f 1//1 20//20 19//19 18//18 17//17 16//16 15//15 14//14 13//13 12//12 11//11 10//10 9//9 8//8 7//7 6//6 5//5 4//4 3//3 2//2
f 1//1 21//21 40//40 20//20
f 2//2 22//22 21//21 1//1
f 3//3 23//23 22//22 2//2
f 4//4 24//24 23//23 3//3
f 5//5 25//25 24//24 4//4
f 6//6 26//26 25//25 5//5
f 7//7 27//27 26//26 6//6
f 8//8 28//28 27//27 7//7
f 9//9 29//29 28//28 8//8
f 10//10 30//30 29//29 9//9
f 11//11 31//31 30//30 10//10
f 12//12 32//32 31//31 11//11
f 13//13 33//33 32//32 12//12
f 14//14 34//34 33//33 13//13
f 15//15 35//35 34//34 14//14
f 16//16 36//36 35//35 15//15
f 17//17 37//37 36//36 16//16
f 18//18 38//38 37//37 17//17
f 19//19 39//39 38//38 18//18
f 20//20 40//40 39//39 19//19
f 22//22 23//23 24//24 25//25 26//26 27//27 28//28 29//29 30//30 31//31 32//32 33//33 34//34 35//35 36//36 37//37 38//38 39//39 40//40 21//21
